<?xml version="1.0" standalone="no"?>
<!DOCTYPE svg PUBLIC "-//W3C//DTD SVG 20010904//EN"
 "http://www.w3.org/TR/2001/REC-SVG-20010904/DTD/svg10.dtd">
<svg version="1.0" xmlns="http://www.w3.org/2000/svg"
 width="700.000000pt" height="700.000000pt" viewBox="0 0 700.000000 700.000000"
 preserveAspectRatio="xMidYMid meet">
<metadata>
Created by potrace 1.14, written by Peter Selinger 2001-2017
</metadata>
<g transform="translate(0.000000,700.000000) scale(0.100000,-0.100000)"
fill="#000000" stroke="none">
<path d="M3070 6404 c-292 -50 -532 -232 -654 -495 l-34 -74 -184 -1 c-176 -1
-323 -10 -340 -20 -5 -3 -21 -8 -36 -10 -102 -18 -266 -106 -371 -200 -114
-102 -214 -269 -257 -429 -25 -90 -26 -225 -28 -1940 0 -990 3 -1829 7 -1865
41 -343 257 -620 574 -733 153 -55 93 -54 1773 -52 1725 1 1604 -3 1773 66 70
29 169 86 175 101 2 5 9 8 15 8 6 0 49 40 96 88 128 132 200 266 236 442 17
79 18 205 18 1910 0 1950 2 1894 -49 2043 -89 261 -326 488 -579 554 -110 28
-176 35 -373 36 l-213 1 -29 63 c-104 230 -326 424 -550 483 -25 6 -63 16 -85
23 -60 16 -789 17 -885 1z m806 -584 c250 -82 279 -420 47 -536 l-58 -29 -351
-3 c-336 -3 -354 -2 -408 18 -70 27 -129 83 -162 154 -81 176 35 381 229 405
99 12 661 5 703 -9z m-1486 -582 c0 -8 18 -48 40 -91 106 -208 280 -358 505
-435 115 -39 178 -44 545 -46 441 -1 513 7 677 84 136 64 240 145 328 260 44
57 125 205 125 228 0 10 43 12 201 12 243 -2 269 -8 350 -89 98 -98 89 94 89
-1953 0 -1738 -1 -1800 -19 -1848 -39 -101 -121 -169 -226 -187 -27 -4 -719
-8 -1537 -7 l-1486 0 -66 33 c-46 23 -77 46 -101 78 -70 91 -65 -43 -65 1933
0 2037 -8 1853 88 1950 82 81 105 87 350 89 161 1 202 -1 202 -11z"/>
<path d="M4277 3775 c-20 -8 -47 -21 -60 -29 -12 -9 -244 -237 -515 -508
l-492 -492 -208 206 c-237 236 -261 253 -378 252 -167 0 -287 -121 -287 -289
-1 -118 11 -135 376 -499 362 -362 373 -370 492 -370 132 -1 108 -21 794 665
682 682 664 661 664 788 1 122 -79 237 -190 275 -56 19 -144 20 -196 1z"/>
</g>
</svg>
